<svg width="23" height="21" viewBox="0 0 23 21" fill="none" xmlns="http://www.w3.org/2000/svg">
<path d="M21.1055 5.00166L15.4976 3.71335C15.4976 3.59968 15.5355 3.5239 15.5355 3.41022C15.5355 1.51565 14.0198 0 12.1631 0C10.2686 0 8.7529 1.51565 8.7529 3.41022C8.7529 3.78914 8.86658 4.28172 9.09392 4.85009L7.99507 5.07744L3.03131 3.67546C2.31137 3.486 1.55355 3.59968 0.947284 4.05438C0.341022 4.50907 0 5.19111 0 5.94894V16.7859C0 17.8468 0.719936 18.7941 1.743 19.0594L7.72983 20.7645C7.72983 20.7645 7.72984 20.7645 7.76773 20.7645C7.84351 20.7645 7.91929 20.8024 7.99507 20.8024C8.07086 20.8024 8.10875 20.8024 8.18453 20.8024L15.0808 19.3625L20.0824 20.5371C20.2719 20.575 20.4234 20.6129 20.6129 20.6129C21.1434 20.6129 21.6739 20.4234 22.0907 20.0824C22.659 19.6277 23.0001 18.9457 23.0001 18.2257V7.31303C22.9622 6.21418 22.2043 5.2669 21.1055 5.00166ZM12.1252 1.70511C13.0725 1.70511 13.7925 2.46294 13.7925 3.41022C13.7925 3.82703 13.262 5.07744 12.0873 6.89623C10.9127 5.07744 10.3822 3.86492 10.3822 3.41022C10.4201 2.46294 11.1779 1.70511 12.1252 1.70511ZM9.81386 6.40364C10.2307 7.16147 10.7233 7.91929 11.1779 8.56345C11.3674 8.86658 11.7463 9.05603 12.0873 9.05603C12.4663 9.05603 12.8073 8.86658 12.9967 8.56345C13.3756 7.99508 13.7925 7.38881 14.1714 6.74466V17.7332L8.82868 18.8699V6.63099L9.81386 6.40364ZM1.743 16.748V5.94894C1.743 5.72159 1.85668 5.53214 2.00824 5.41846C2.15981 5.30479 2.38716 5.2669 2.57661 5.30479L7.12357 6.5931V18.7941L2.1977 17.3921C1.93246 17.3163 1.743 17.0511 1.743 16.748ZM21.257 18.15C21.257 18.4152 21.1055 18.6047 20.9918 18.6804C20.916 18.7562 20.6887 18.8699 20.4234 18.7941L15.8765 17.7332V5.53214L20.7266 6.66888C21.0297 6.74466 21.257 7.0099 21.257 7.31303V18.15Z" fill="#7A8FA6"/>
</svg>
