<svg width="2" height="2" viewBox="0 0 2 2" fill="none" xmlns="http://www.w3.org/2000/svg">
<path d="M1.19344 1.95591C1.23764 1.95591 1.32604 1.91171 1.37024 1.91171C1.41445 1.91171 1.50285 1.86751 1.54705 1.82331C1.59125 1.77911 1.63545 1.73491 1.67966 1.6907C1.85646 1.5139 1.98907 1.24869 1.98907 0.983482C1.98907 0.718273 1.90066 0.453065 1.67966 0.276259C1.63545 0.232057 1.59125 0.187856 1.54705 0.143654C1.50285 0.0994529 1.41445 0.0552516 1.37024 0.0552516C1.32604 0.0110501 1.23764 0.0110504 1.19344 0.0110504C0.884028 -0.0331511 0.530417 0.0552516 0.30941 0.276259C0.132604 0.453065 0 0.718273 0 0.983482C0 1.24869 0.0884024 1.5139 0.30941 1.6907C0.486215 1.86751 0.751425 2.00012 1.01663 2.00012C1.06084 1.95591 1.14924 1.95591 1.19344 1.95591Z" fill="#7A8FA6"/>
</svg>
